<?xml version="1.0" encoding="utf-8"?>
<!-- Generator: Adobe Illustrator 16.0.0, SVG Export Plug-In . SVG Version: 6.00 Build 0)  -->
<!DOCTYPE svg PUBLIC "-//W3C//DTD SVG 1.1//EN" "http://www.w3.org/Graphics/SVG/1.1/DTD/svg11.dtd">
<svg version="1.1" id="Ebene_1" xmlns="http://www.w3.org/2000/svg" xmlns:xlink="http://www.w3.org/1999/xlink" x="0px" y="0px"
	 width="32.352px" height="38.047px" viewBox="0 0 32.352 38.047" enable-background="new 0 0 32.352 38.047" xml:space="preserve">
<path fill="#FFFFFF" d="M0.188,32.428c0.178,0.719,1.079,0.324,1.367-0.037c0.289-0.361,1.043-2.017,1.151-2.41
	c0.108-0.395,0.395-0.219,1.115-1.439c0.72-1.223,0.899,0.217,0.899,0.217c-0.035,1.403,1.26,0.667,1.691,0.596
	c0.433-0.071,1.87-1.044,2.123-1.333c0.252-0.286,1.726-0.611,2.625-0.934c0.901-0.324,3.238-1.497,3.49-1.676
	c0.252-0.18,0.107-0.828,0.324-0.828c0.216,0,1.115,0.865,1.043,1.115c-0.071,0.252,0.072,1.872,0.11,2.16
	c0.034,0.289,0.683,2.374,0.935,3.596c0.25,1.226,0.61,1.656,0.647,2.053c0.034,0.395,0.251,1.185,0.396,1.438
	s-0.18,0.505-0.107,0.686c0.072,0.179-0.144,0.611-0.254,0.897c-0.105,0.287-0.25,1.223-0.105,1.332
	c0.144,0.107,1.942,0.216,2.375,0.181c0.431-0.036,0.647-0.073,0.791-0.145c0.146-0.073,0.288-0.469,0.146-0.719
	c-0.146-0.253-0.254-0.828-0.433-1.079c-0.181-0.252,0.072-1.225,0.037-1.513c-0.037-0.287-0.217-1.116-0.182-1.475
	c0.037-0.358,0.361-0.971,0.324-1.26c-0.035-0.286-0.397-1.368-0.397-1.618c0-0.252,0.182-1.691,0.109-1.907
	c-0.072-0.217-0.431-1.437-0.47-2.014c-0.033-0.577-0.43-5.505-0.43-6.117s0.614-1.009,1.117-1.547
	c0.243-0.263,0.468-0.647,0.638-0.98c1.424,0.133,2.466-0.659,2.67-1.035c0.217-0.396,0.719-0.79,0.793-0.971
	c0.071-0.181,0.465-0.862,0.755-0.937c0.287-0.071,0.646-0.719,1.186-1.08c0.136-0.09,0.359-0.115,0.614-0.104
	c-0.052,0.523-0.275,1.674-0.519,1.786c-0.288,0.131-0.456,0.023-0.696-0.05c-0.238-0.071-0.167,0.263-0.035,0.396
	c0.132,0.133,0.301,0.443,0.301,0.528s-0.144,0.059-0.72,0.146c-0.577,0.08-0.179,0.586,0.058,0.548
	c0.11-0.014,0.601-0.049,0.745-0.035c0.145,0.012-0.022,0.359-0.145,0.526c-0.119,0.17-0.647,0.17-0.588,0.456
	c0.019,0.084,0.398,0.144,0.506,0.181c0.105,0.036-0.243,0.155-0.636,0.288c-0.396,0.133,0.036,0.407,0.215,0.372
	c0.178-0.036,0.541,0.035,0.503,0.323c-0.036,0.287,0.18,0.684,0.29,0.433c0.106-0.254,0.285-0.954,0.646-1.439
	c0.205-0.275,1.117-1.728,1.117-1.728c0.133-0.267,1.157-1.505,1.676-2.125c0.313,0.063,0.64,0.112,0.877,0.112
	c0.613,0,0.47-0.685,0.359-0.901c-0.107-0.216,0.144-1.078,0.216-1.51c0.072-0.433,0.9-2.626,0.9-2.951s-0.973-1.008-0.973-1.008
	l-2.481-2.313c0.019-0.041,0.045-0.099,0.075-0.166c0.313-0.003,0.687-0.138,0.788-0.29c0.145-0.217,0.469-1.046,0.36-1.297
	c-0.066-0.149-0.312-0.067-0.499,0.021c0.209-0.532,0.386-1.042,0.428-1.315c0.108-0.719-0.252-2.41-1.799-2.52
	c-1.549-0.107-2.77,0.685-2.879,1.907c-0.03,0.333-0.061,0.725-0.093,1.119c-0.131-0.017-0.269,0.021-0.302,0.249
	c-0.026,0.171,0.014,0.358,0.078,0.523c-0.703-0.148-1.35-0.276-1.519-0.307c-0.395-0.071-3.562-0.251-3.813-0.035
	c-0.254,0.215-0.972,0.467-1.44,0.609c-0.467,0.146-3.562,1.046-3.958,1.442c-0.039,0.038-0.073,0.094-0.102,0.163
	c-0.988,0.507-2.916,1.504-3.676,1.976C9.506,8.304,8.768,8.897,8.57,9.347C8.373,9.796,8.121,10.48,7.94,10.77
	c-0.18,0.287-0.593,0.717-0.451,0.808c0.146,0.089,0.36-0.019,0.469-0.107c0.108-0.091-0.018,0.178-0.054,0.342
	c-0.036,0.161-0.196,0.415-0.036,0.468c0.163,0.052,0.235,0.036,0.18,0.269c-0.054,0.235-0.162,0.541-0.018,0.559
	c0.144,0.018,0.576-0.881,0.701-1.063c0.128-0.179,0.36-0.936,0.576-0.897c0.216,0.036,0.703,0.431,0.917,0.81
	c0.217,0.375,0.415,0.611,0.595,0.521c0.18-0.089-0.198-1.078-0.324-1.277c-0.126-0.198-0.126-0.953-0.036-1.098
	c0.089-0.143,0.089-0.522,0.071-0.61c-0.016-0.08,2.888-0.918,3.65-1.136c0.014,0.046,0.024,0.084,0.039,0.109
	c0.179,0.36,0.646,1.046,1.08,0.937c0.431-0.107,1.26,0,1.079,0.109c-0.181,0.107-1.223,0.538-1.475,0.969
	c-0.252,0.432-1.044,0.864-1.764,1.619c-0.719,0.755-0.898,2.843-0.898,2.843l0.021-0.002c-0.377,1.336,1.022,3.958,1.022,3.958
	c0.069,0.288-0.685,0.937-1.044,1.513c-0.36,0.575-0.899,1.978-1.402,2.015c-0.505,0.036-1.765,0.143-2.195,0.396
	c-0.432,0.251-2.194,1.187-3.203,1.799c-1.007,0.611-1.619,0.54-1.978,0.469C3.1,25.017,2.094,24.55,1.734,24.406
	c-0.36-0.146-0.647-0.039-0.827,0.249c-0.18,0.288-0.542,1.369-0.542,1.799c0,0.436,0.218,1.872-0.142,2.63
	C-0.138,29.836,0.007,31.707,0.188,32.428"/>
</svg>
