<?xml version="1.0" encoding="utf-8"?>
<!-- Generator: Adobe Illustrator 15.1.0, SVG Export Plug-In . SVG Version: 6.00 Build 0)  -->
<!DOCTYPE svg PUBLIC "-//W3C//DTD SVG 1.1//EN" "http://www.w3.org/Graphics/SVG/1.1/DTD/svg11.dtd">
<svg version="1.1" id="Ebene_1" xmlns="http://www.w3.org/2000/svg" xmlns:xlink="http://www.w3.org/1999/xlink" x="0px" y="0px"
	 width="119.464px" height="119.143px" viewBox="0 0 119.464 119.143" enable-background="new 0 0 119.464 119.143"
	 xml:space="preserve">
<g>
	<path fill="#FFFFFF" d="M61.936,94.206c-1.239-0.021-2.216-1.268-3.812-0.128c-1.006,0.717-2.942,0.133-4.375,0.133
		c-0.305,1.371,0.448,1.908,1.191,2.106c0.781,0.214,1.382,0.663,1.529,1.264c0.456,1.842,2.085,2.208,3.709,3.188
		c-0.293-1.205,0.542-2.362,1.13-1.941c1.283,0.917,1.762,0.074,2.296-0.598c0.979-1.233,2.728-1.892,3.091-4.021
		C64.985,94.211,63.46,94.229,61.936,94.206z"/>
	<path fill="#FFFFFF" d="M96.712,36.379c-1.273-4.667-2.545-3.536-1.56-8.063c0.991-4.523-3.252-2.687-3.532-3.395
		c-0.283-0.707-3.111-6.223-3.682-9.619c-0.563-3.395-5.518-4.385-7.068-6.083c-1.559-1.697-1.979-2.262-3.961-5.374
		c-1.979-3.112-1.414,0.282-4.387,1.131c-2.971,0.852-3.961-1.979-5.83-3.336c-1.865-1.354-6.616,0.228-13.016,0.367
		c-6.399,0.141-5.199-1.415-8.17,0.99c-2.97,2.401-8.91,2.546-11.315,3.208c-2.405,0.662-2.264,3.298-4.244,5.275
		c-1.98,1.981-1.556,4.104-2.405,6.51c-0.849,2.402-1.415,3.96-2.687,6.362c-1.273,2.405-2.265,3.112-2.829,6.227
		c-0.567,3.108,0.424,4.244,0.849,6.362c0.425,2.121-0.424,4.951-0.284,7.217c0.142,2.263-1.131,6.506-1.272,11.456
		c-0.141,4.949,4.314,8.347,4.314,8.347l0.651,0.011c0.13,0.646-0.063,1.343,0.003,1.991c0.281,2.771-0.626,5.651,0.73,8.333
		c-0.192,4.194,0.76,8.258,1.444,12.349c0.352,2.101,0.693,4.192,1.749,6.111c1.176,2.138,1.781,4.536,3.227,6.587
		c0.867,1.235,4.628,7.902,5.832,8.438c0.898,0.396,0.46,1.194,1.083,1.559c2.831,1.636,5.372,3.691,7.495,6.149
		c1.073,1.241,2.417,1.722,3.787,2.215c1.239,0.443,2.892,1.207,3.809,0.737c1.337-0.68,2.537-0.263,3.766-0.482
		c2.198-0.4,4.323,0.749,6.62,0.068c1.901-0.561,3.653-1.047,5.084-2.552c1.27-1.34,2.44-2.788,4.219-3.647
		c1.02-0.495,1.604-2.106,2.604-2.359c1.235-0.312,1.063-2.044,2.426-1.856c1.53-3.628,4.811-6.147,5.979-10.126
		c0.731-2.485,2.181-4.799,3.083-7.348c0.969-2.729,0.956-5.542,1.74-8.247c0.533-1.835-0.373-3.97,0.8-5.795
		c-0.209-3.407,1.128-6.688,0.776-10.137c-0.026-0.281-0.08-0.577-0.125-0.879l0.709,0.013l0.756-2.972c0,0,3.113-3.396,3.681-4.95
		s0-7.921,0.424-11.315C98.41,42.461,97.984,41.047,96.712,36.379z M74.309,94.782c-1.287,2.113-2.067,4.658-4.122,6.135
		c-1.198,0.856-2.313,1.837-3.615,2.956c-0.857-1.329-2.08-1.004-3.223-1.024c-1.076-0.019-2.154,0.006-3.23-0.009
		c-0.677-0.008-0.673-0.025-1.478-1.764c-0.165-0.355-0.559-0.533-0.841-0.366c-0.492,0.292-0.929,0.701-1.333,1.113
		c-1.286,1.315-2.782,2.015-4.592,1.699c-1.351-0.964-2.086-2.604-3.82-3.059c-0.299-0.079-0.756-0.513-0.729-0.73
		c0.254-2.027-2.208-2.466-2.438-4.364c-0.127-1.057,1.127-1.652,0.39-2.772c-0.448-0.683,0.649-1.016,1.053-1.469
		c1.036-1.157,2.178-2.22,3.242-3.282c2.294-0.519,4.701,0.584,6.906-0.796c0.905-0.565,1.581,0.852,2.552,0.688
		c0.632-0.261,0.061-1.175,0.769-1.398c0.305,0.885,0.547,1.755,1.866,1.417c3.992-1.024,6.543-0.994,10.291-0.022
		c0.226,0.061,0.479,0.01,0.834,0.01c0.463,2.158,0.912,4.352,1.438,6.521C74.285,94.49,74.449,94.554,74.309,94.782z
		 M90.904,70.597c-0.046,0.652-0.008,1.586-0.453,2.417c-0.451,0.838-0.252,2.118-0.091,3.165c0.179,1.148-0.651,1.928-0.887,2.914
		c-0.214,0.904-0.409,1.958-0.87,2.858c-0.512-0.266-0.788-0.972-1.645-0.638c-0.424,0.889-0.065,2.489-1.438,2.774
		c-1.672,0.35-1.011,1.297-0.683,2.06c0.183,0.413,0.564,0.727,0.402,1.288c-0.687,0.646-1.836,0.55-2.303,0.229
		c-1.531-1.063-1.682,0.104-1.947,1.01c-0.252,0.841,0.301,1.833-0.322,2.577c-1.776-1.122-0.979,2.048-2.875,1.104
		c-1.596-0.321,0.666-1.257,0.297-1.964c-0.494-1.164-2.221-1.474-2.176-2.942c0.324-0.716,1.283-0.109,1.432-0.794
		c0.293-1.903-2.354-1.372-2.35-3.036c0-0.169-0.768-0.331-1.172-0.517c-0.179-0.081-0.328-0.268-0.512-0.296
		c-3.02-0.472-3.051-0.429-4.23-1.567c-1.082-1.049-2.859-0.825-3.813-2.12c-0.055-0.072-0.498,0.011-0.623,0.146
		c-0.564,0.623-1.002,0.702-1.781,0.159c-0.701-0.488-0.297-1.404-0.514-1.514c-3.181-0.745-5.77-0.187-7.476,1.864
		c-2.256,2.713-5.459,1.882-8.172,2.784c-0.969,0.322-3.109,0.974-3.115,1.716c-0.012,1.858-0.845,3.542-0.862,5.456
		c-0.017,1.972-0.494,4.085-1.748,5.907c-0.617-0.842,0.175-2.088-1.068-2.584c-1.109-0.44-0.297-1.782-1.009-2.438
		c-0.259,0.232-0.51,0.464-0.76,0.689c-1.099-1.227,0.424-2.104,0.432-2.87c-1.461-2.267-3.403,0.058-4.926-0.908
		c-0.642-0.867,0.51-1.175,0.547-1.809c0.027-0.454-0.05-1.308-0.143-1.317c-1.893-0.183-1.815-2.254-3.024-3.028
		c-0.096-0.063-0.5,0.354-0.794,0.568c-0.229-0.452-0.43-0.957-0.719-1.402c-0.364-0.568-1.194-0.817-1.066-1.725
		c0.486-3.426-0.917-6.706-0.749-10.132c0.076-1.563,0.087-3.129,0.08-4.688L28.025,64c-0.077-0.171-0.158-0.356-0.243-0.553
		c-0.012-1.689-0.043-3.374-0.043-5.049c-0.466-0.081-0.789-0.229-0.896-0.138c-0.077,0.069-0.191,0.327-0.315,0.683
		c-0.274-1.759-2.416-3.779-0.892-6.3c1.627-2.688,2.192-4.368,2.192-7.418s0-4.181,0.708-6.728
		c0.708-2.546,1.273-4.812,2.264-6.365c0.99-1.556,0.282-3.96,3.111-5.092c2.829-1.131,2.608-0.991,6.326-1.98
		c3.716-0.988,1.878-2.547,7.111-1.839s6.506,1.481,10.042-0.179c3.535-1.66,4.324-1.66,9.304-1.095
		c4.981,0.563,5.405,0.141,7.388,0.848c1.979,0.708,7.639,1.699,8.91,3.114c1.271,1.413,1.696,0.563,3.535,3.253
		c1.838,2.686,1.838,1.838,2.688,5.516c0.852,3.677,1.416,3.396,1.979,7.78c0.565,4.385,0.425,4.95,0.708,8.768
		c0.104,1.414,0.014,3.833-0.143,6.319c-0.203,0.013-0.44,0.066-0.719,0.142c0,1.824-0.127,3.727,0.051,5.598
		c0.103,1.038-1.282,1.748-0.668,2.521C91.654,67.361,91.014,69.056,90.904,70.597z"/>
</g>
</svg>
